<svg width="388" height="216" viewBox="0 0 388 216" fill="none" xmlns="http://www.w3.org/2000/svg">
<g style="mix-blend-mode:darken">
<path d="M377.644 120.094C378.385 118.874 379.416 117.32 379.128 116.098C379.046 117.578 377.768 118.651 377.644 120.094Z" fill="#333333" fill-opacity="0.46"/>
<path d="M328.205 109.179C329.812 106.699 327.093 103.998 328.988 101.63L337.722 89.8998C340.442 86.9026 342.831 83.7571 343.449 79.9467C343.944 78.6512 342.79 77.0599 344.025 76.0607C344.355 77.319 344.973 78.4661 345.014 79.8718C346.127 85.2377 342.419 88.9007 341.76 93.8222C339.617 96.1906 341.306 99.7804 340.688 102.592L341.471 103.85L340.77 105.441C340.276 106.552 341.142 107.402 341.554 108.291C340.77 110.104 341.801 111.992 341.554 113.805C341.512 120.058 341.883 126.792 343.16 132.899C342.172 135.156 343.243 137.524 343.656 139.706C342.254 141.705 342.213 144.296 342.172 146.664C342.254 147.81 341.183 148.882 341.842 149.919C341.306 155.396 341.266 160.724 341.183 166.349C340.854 171.529 342.213 176.451 341.183 181.559C342.049 183.001 341.1 184.333 341.266 185.814C341.595 191.067 339.824 196.803 340.276 202.428C340.854 203.796 342.461 204.463 343.943 204.648C345.673 204.315 347.692 204.351 348.887 203.058C349.917 201.577 351.359 200.281 351.359 198.431C350.452 193.731 351.441 189.181 350.864 184.112C351.399 181.447 351.524 178.672 350.74 176.043C351.689 175.267 350.576 174.379 351.359 173.564C351.441 168.532 353.419 164.24 353.831 159.355C354.654 156.247 353.871 153.028 354.119 149.919H354.901C356.302 149.031 358.197 149.179 359.846 148.773C360.299 151.511 360.175 154.694 360.34 157.653C360.093 159.393 361.37 161.576 359.64 162.907C359.475 165.239 359.352 167.275 359.269 169.568C359.269 170.79 358.527 171.825 357.992 172.75C357.662 176.081 358.115 179.447 357.992 182.705C358.898 184 357.868 185.258 358.074 186.628C359.227 188.589 361.329 190.291 363.8 190.512C365.078 190.438 366.437 190.475 367.261 189.439C367.714 189.254 367.344 188.624 367.962 188.662C367.962 186.887 368.003 184.443 367.879 182.445C367.302 181.039 367.137 179.41 366.89 178.004C366.808 176.415 366.437 174.564 367.385 173.121C368.25 163.908 371.01 154.878 372.205 145.664C373.482 145.628 374.553 144.74 375.377 144.147L375.46 139.189C376.325 133.157 376.202 127.755 377.068 121.685L377.273 121.426C377.808 122.13 376.696 123.572 378.344 123.389L381.023 120.093L381.723 120.279C382.546 119.392 383.453 118.984 384.194 118.059C386.089 117.024 386.5 114.95 387.037 113.175C386.749 107.069 387.654 100.113 387.037 93.8959C386.213 84.8297 384.935 75.8381 385.471 66.7355C384.69 62.4431 385.512 57.6326 383.988 53.4888C382.422 51.2312 379.868 50.4543 377.561 49.4919C375.172 49.3071 373.194 48.308 371.422 46.8277C371.051 45.7549 370.063 44.6814 370.722 43.4608C371.464 41.0184 374.101 42.5729 375.955 42.1283C376.202 42.1283 376.49 42.5356 376.655 42.1283C376.119 41.1291 376.077 39.6125 376.943 38.7613L377.355 38.946C378.673 36.911 379.127 34.4322 380.033 32.1745C380.198 32.3599 380.487 32.5819 380.734 32.3599C380.61 30.1028 379.497 28.2155 378.427 26.3285C378.55 26.2548 378.591 26.1061 378.756 26.1431C378.962 25.6994 378.344 25.5517 378.138 25.2547C376.532 22.2578 374.347 17.4476 369.651 17.8917C368.456 19.0016 368.333 16.8185 367.055 17.3363C366.356 18.1504 365.655 16.5225 365.201 17.5216C363.842 17.3363 362.606 16.8555 361.123 16.8925C358.693 17.2253 357.044 19.3716 354.696 19.9267C353.13 21.407 350.823 22.9609 351.359 25.0697C350.782 25.5884 350.823 26.3282 350.576 26.9573C349.958 27.8451 351.029 29.0663 349.876 29.7694C349.587 30.1025 349.876 30.6573 350.37 30.5836C349.793 32.3223 350.082 34.0615 350.865 35.6528C351.113 37.3918 353.172 36.2452 353.213 37.9469L353.419 37.7625L354.037 38.3169C354.201 39.6486 355.026 40.7964 355.026 42.2026C356.138 41.9065 357.127 41.3514 358.363 41.3144C359.27 41.5735 358.693 42.6837 358.857 43.3868C356.633 45.0147 353.542 45.1628 351.071 46.495C348.969 47.0868 346.58 47.0504 344.644 47.9012C343.531 48.9744 342.048 49.8255 341.965 51.3795C338.587 57.8553 338.175 65.4403 336.816 72.6938C336.074 74.2481 334.385 75.4693 333.767 77.1339C332.037 81.4266 329.688 85.4597 328.412 89.8998C327.052 92.786 326.434 95.8942 324.663 98.5956C323.385 102 320.171 104.628 318.729 107.921C319.224 110.067 320.666 111.806 322.479 113.435C323.467 114.174 324.332 112.842 325.24 112.917L328.205 109.179ZM380.899 105.626H380.611C380.198 103.11 381.434 100.779 380.734 98.2626C381.105 97.5595 380.611 96.5606 380.239 95.8575C379.251 93.7852 378.51 91.6761 377.068 89.8255C377.19 87.3467 374.512 85.8668 374.801 83.3507L374.472 82.7215C375.337 79.0215 373.689 75.4319 377.068 72.6935L377.561 73.2116C377.891 75.9497 378.633 78.5769 377.644 81.3893C377.19 86.4215 380.322 90.1592 380.322 95.0434C381.888 96.5982 380.94 99.0767 381.888 100.816C381.764 102.37 382.835 104.59 380.899 105.626Z" fill="#333333" fill-opacity="0.46"/>
<path d="M28.7058 22.9279C28.7395 23.291 29.1732 23.0486 29.34 23.2303C30.2083 23.2303 31.0431 23.2 31.7442 23.5024L31.8449 24.1078C33.2468 23.6844 33.982 25.1971 35.1839 25.4692C35.4173 25.6205 35.4842 25.8022 35.2839 25.9836C36.3525 26.6795 36.3525 27.739 37.2873 28.3141C37.2873 28.8889 36.854 29.6457 37.5879 29.9781C37.755 30.3112 37.1208 30.3719 37.2873 30.7046C38.29 31.007 36.9536 31.5215 37.6885 31.8545C37.1204 33.8517 38.4899 36.2122 37.4545 38.1186C38.1559 40.4181 36.3525 42.5062 35.6848 44.6547C35.3173 45.5626 34.0154 46.1377 33.8479 47.1056C34.2485 50.3439 38.1893 49.9199 40.3933 51.2515C43.2984 52.1287 45.7695 53.9448 48.4078 55.3968C50.5115 57.8783 50.4777 61.2978 51.6135 64.1727C52.2146 66.593 51.9803 69.4983 53.3163 71.738C54.6858 75.9137 55.7216 80.8464 54.5855 85.3247C55.1863 86.4747 54.5855 87.7156 53.9509 88.6538C53.5166 90.6812 53.6837 92.9204 51.6135 94.3121C50.5784 95.0082 50.3112 96.0374 49.2096 96.6422C48.5081 98.2465 48.2741 100.031 48.1741 101.877C47.3393 102.604 47.7732 103.754 47.7732 104.782C47.8067 106.931 48.2741 109.261 49.0755 111.318V111.893C48.4078 113.468 47.039 114.89 47.4727 116.765C46.7712 119.52 49.2096 121.971 47.2059 124.331C46.037 126.57 46.4041 129.868 46.9053 132.289C45.1019 138.584 46.5382 145.453 46.9053 151.534C47.5058 153.017 46.7716 154.501 46.7381 155.984C47.7401 157.738 46.9053 159.616 46.8047 161.491C47.5395 164.244 46.6713 167.572 47.8736 170.144C47.7071 171.688 48.3744 172.899 48.8084 174.199C50.4446 175.622 51.0461 177.407 52.4149 178.919C52.7823 179.344 52.5817 180.252 53.4838 180.222C53.7513 181.038 54.0181 182.4 53.2167 183.066C51.1799 183.098 49.3092 184.216 47.2062 183.489C43.3991 182.673 39.6922 181.553 36.4865 179.436C35.7848 178.135 35.8185 176.439 35.852 174.927C35.2839 174.473 34.9165 173.867 35.1839 173.202C35.7182 171.386 34.9165 169.358 34.9499 167.391C35.1171 165.606 34.5163 163.972 33.5811 162.52C32.2789 159.402 32.646 155.65 31.4433 152.504C31.8108 149.719 31.1093 146.874 30.7757 144.272C30.0414 143.364 30.5754 141.972 30.3082 140.884C29.1728 139.188 29.6402 136.828 29.1728 134.981C29.0391 135.678 28.5717 136.283 28.3045 136.949C28.138 138.977 29.4065 141.307 28.138 143.182C27.904 143.848 28.6727 144.09 28.7054 144.635C28.6727 146.722 26.7679 148.357 27.8375 150.536C28.138 152.684 27.8375 155.166 28.3714 157.436C29.7071 159.251 28.471 162.095 29.44 163.972C28.7388 166.059 29.7405 168.269 29.1728 170.417L28.3714 173.474C26.1337 175.168 27.8375 177.831 26.3008 179.798C24.9648 181.372 22.7608 182.642 22.8615 184.73C22.3934 186.365 20.4231 186.849 19.1546 187.787C17.6852 188.241 15.9152 188.484 14.2786 188.15C13.2438 187.484 12.1749 186.486 12.0415 185.305C11.4069 181.795 14.546 179.676 15.4815 176.741L14.6129 174.503C14.4792 171.416 13.6447 168.45 13.1438 165.424C12.3086 163.336 11.1063 161.188 11.7075 158.737C11.1063 155.741 11.2066 152.593 11.3066 149.506C10.7058 146.149 10.1046 142.577 10.338 139.067C8.96922 132.44 8.16781 125.601 7.63353 118.641C7.69939 111.893 7.86656 105.387 7.46636 98.8207C7.8669 96.2488 7.39881 93.6463 7.53289 90.9833C7.29952 90.0448 6.2975 89.4097 5.79666 88.5925C4.32756 87.5336 4.32756 85.8383 3.62645 84.4463C2.69062 83.3874 3.2249 81.814 1.92264 80.8761C1.55553 79.3024 1.82267 77.2447 0.820648 75.7923C0.520075 74.0976 1.82233 71.7978 0.319804 70.2848C0.553509 66.3809 -0.447839 62.6288 0.253611 58.8159C1.02159 55.9109 4.16039 54.8827 6.59808 53.369C8.26778 53.2783 9.47041 52.1885 10.9061 51.614L16.2157 49.2841C18.0523 49.2235 18.9537 47.3777 19.8226 46.1674C19.5217 45.0178 19.8888 43.2618 18.2863 42.687C17.9523 40.7806 15.4478 38.6021 17.6517 36.8164C17.6852 35.8788 17.2171 35.0613 17.4177 34.1838C16.8834 33.6694 17.4511 33.3063 16.9165 32.8222C16.8503 32.4591 17.3846 32.2167 17.084 31.8539C17.3512 30.825 17.4177 29.5541 18.3525 28.6766C18.186 28.0714 19.3545 27.557 18.62 27.1332C18.62 26.7095 19.8226 26.6185 19.1543 26.0434C19.5214 25.3172 20.5899 25.3172 20.6906 24.5307C21.1914 24.3493 21.6919 24.2886 22.2262 24.1679V23.8048C22.7274 23.9255 23.2282 23.6231 23.7291 23.5018C23.4623 23.3201 23.8628 23.1087 24.0631 23.0783C24.7983 23.4717 25.1654 22.8969 25.8338 23.5018C26.5011 22.7152 27.3363 23.5931 28.0705 22.8666L28.7058 22.9279Z" fill="#333333" fill-opacity="0.46"/>
<path d="M77.7745 13.1995C78.6377 14.178 80.4723 13.3891 81.1197 14.4944C81.84 15.631 83.4949 16.3572 83.4587 17.8089C84.5374 18.6612 84.5023 20.0502 85.2571 21.0603C85.6533 22.7965 85.2571 24.6908 85.6171 26.2375C85.7975 27.6898 86.4807 29.5838 85.3659 30.8466C86.1568 31.8567 84.6452 34.414 86.9839 34.0986C88.1717 34.9191 87.0565 36.3711 88.6394 36.9708C91.6252 37.1607 93.8565 38.9603 96.662 39.4972C100.547 40.76 105.189 42.6221 106.52 46.5365C108.248 51.2406 108.139 56.3859 108.571 61.4685C108.139 66.2353 107.959 71.3182 105.98 75.6109C105.225 77.1264 103.031 78.6736 104.614 80.4724C104.578 84.3877 103.894 88.0489 104.866 91.7744C104.65 94.71 105.045 97.709 104.182 100.613C102.708 101.371 101.232 102.223 99.6134 102.666C98.8934 103.045 100.009 103.992 98.9295 104.023C99.0011 105.665 100.871 106.738 100.296 108.506C99.9724 109.99 98.354 111.095 98.7491 112.736C99.3608 113.999 98.7491 115.356 98.5691 116.619C97.8494 118.924 97.8859 121.607 97.5259 123.975C97.2743 125.9 98.0298 127.669 97.8859 129.657C97.9937 133.57 97.5624 137.2 98.5691 140.991C97.8494 144.493 98.5691 147.588 97.9575 150.933C97.2378 152.543 96.8059 154.659 97.3462 156.396C97.9933 158.888 97.202 161.163 97.0946 163.655C99.2892 167.666 96.1581 172.085 97.7775 176.093C97.6698 178.43 95.9065 180.955 97.5252 183.196C97.3459 183.734 97.8852 184.018 98.0649 184.427C98.2814 184.554 98.533 184.649 98.7485 184.87V185.407C97.8133 186.196 97.3459 187.301 96.2304 187.899C94.6468 191.532 95.6188 196.234 91.0494 198.665C88.9984 200.433 86.4442 202.137 83.4581 201.096C82.3787 200.718 81.4429 200.023 80.4358 199.486C79.068 197.687 80.4712 195.603 80.507 193.646C81.3706 192.035 82.3422 190.427 82.7738 188.659C81.9829 187.333 80.2561 185.817 81.6587 184.271C82.2348 182.881 82.6303 181.333 82.091 179.945C80.2203 178.461 82.5222 175.843 80.7958 174.199C81.3358 170.286 81.0109 165.991 79.7522 162.362C79.7884 161.194 80.2919 160.184 80.4354 159.047C80.1832 157.721 80.2916 156.174 80.0035 154.944C79.6438 153.838 78.9248 152.765 78.9603 151.597L79.3199 151.534C79.3199 149.229 78.7803 147.083 78.0974 145.032C77.809 144.716 77.557 144.242 77.1616 144.115C76.6941 144.779 77.2693 145.442 77.3416 146.073C76.9815 149.609 78.2774 152.796 78.2048 156.238C77.9886 157.564 79.68 158.7 78.4571 159.932C78.4571 161.068 78.4209 162.172 78.7806 163.12C79.1403 165.676 78.0977 167.887 78.709 170.317C79.2845 170.57 78.6367 171.043 78.9606 171.391C79.4277 172.085 80.3632 172.843 80.0038 173.665C78.6732 174.327 79.968 175.463 79.9319 176.377C79.9319 177.263 79.4999 178.178 80.0038 178.967L79.9319 182.534C77.8093 184.018 74.4993 184.524 71.9816 183.512C70.5061 183.735 69.3186 184.554 67.915 184.934C64.1734 185.534 60.4679 186.418 56.5108 186.386C55.2157 185.565 53.5605 186.892 52.625 185.249C51.5102 184.24 52.1576 182.598 52.7337 181.524C55.5392 179.157 59.137 177.83 62.6631 176.599C63.1302 175.463 63.4902 174.137 63.346 172.811C61.8708 171.991 61.835 170.254 62.0508 169.023L62.3028 168.74C62.3386 164.761 62.087 160.69 60.8283 157.06C60.324 154.912 60.3602 152.577 60.5041 150.461C58.7769 147.178 58.9563 143.485 57.7337 140.106C58.2373 135.088 54.6753 131.142 54.6034 126.154C54.0633 124.26 55.0353 122.366 54.4592 120.471C54.3879 114.221 55.1424 107.528 53.1647 101.625C52.9492 101.499 52.8408 101.183 52.5534 101.309C51.4014 99.4783 49.6388 97.3001 51.0772 95.0904C51.366 93.3541 52.5888 91.8393 52.6246 90.1031C51.2211 89.5659 49.3869 88.8712 48.9191 87.4513C49.1346 86.3145 48.5956 85.1779 48.4153 84.1997C48.8472 76.6856 45.4653 68.5103 49.0265 61.6915C50.2859 59.7341 50.322 57.3666 51.6895 55.4723C51.9053 53.5468 52.7692 51.8418 53.0563 49.9478C54.3521 47.4538 56.9779 45.9071 59.2805 44.1078C61.3673 43.192 63.5979 42.5605 65.8286 41.9927C66.6915 40.8243 67.2676 39.4035 67.9873 38.1095C67.7354 37.1937 66.5479 36.6256 66.1163 35.7732C64.8212 34.037 64.7131 31.8275 64.4615 29.7121L63.9579 29.0172C64.2822 25.798 63.3105 23.0832 63.7783 20.0842C63.8502 17.653 66.4763 16.1063 67.7357 14.1799C68.887 13.8644 70.0383 13.6123 71.0093 12.9805C72.1967 13.3909 73.2764 12.5389 74.4628 12.8228C75.5439 13.0736 76.659 13.2626 77.7745 13.1995Z" fill="#333333" fill-opacity="0.46"/>
<path d="M330.413 12.4221C331.759 12.3869 332.866 12.8486 333.935 13.4522C334.844 13.7725 335.914 13.879 336.943 13.9497C337.179 14.1277 337.613 14.1632 337.417 14.5539C337.297 14.5181 337.259 14.6607 337.139 14.7313C337.575 15.1581 338.207 15.4417 338.089 16.1885C338.801 16.5437 339.475 17.1831 339.711 17.8944L339.039 17.9651C340.186 20.0975 339.078 22.7978 340.384 24.8589C340.424 25.7476 339.316 26.1735 339.039 26.9197C339.633 30.8994 338.011 34.5596 334.687 37.5086C333.896 38.2548 332.59 38.5038 331.561 38.6103V39.1077C332.353 40.4227 334.054 41.6311 335.043 42.8745C335.281 43.7981 333.026 43.7626 334.411 44.8282C333.461 45.2198 332.037 45.2544 331.838 46.5341C331.523 47.2093 331.918 48.062 332.195 48.7372C333.184 52.113 335.242 55.0264 335.993 58.4738C336.982 58.8996 337.101 59.8239 337.339 60.6053C337.179 63.4126 337.298 65.8996 336.863 68.7075C337.022 68.9559 336.903 69.2762 336.943 69.5598L336.665 69.7379C336.784 73.5043 337.101 77.6262 338.011 81.3217C338.05 82.3172 338.129 83.5245 336.863 83.8803C337.26 84.2003 337.774 84.5555 337.733 85.1594C337.022 86.0121 335.558 86.2256 335.715 87.4693C336.943 88.3929 336.15 89.8498 336.389 91.058C335.952 91.9825 335.676 92.9413 335.518 93.9359C334.529 95.6776 337.694 96.5658 336.586 98.555C336.348 100.368 336.943 102.323 337.14 104.169C337.497 104.846 337.14 105.45 336.863 106.054C337.813 109.5 335.598 112.627 335.834 116.217C335.755 118.383 334.53 120.125 333.935 122.078C332.274 126.838 331.523 131.779 332.037 137.109C329.861 137.428 330.85 139.847 329.94 141.089C328.793 143.399 327.922 145.778 327.289 148.266C327.961 151.819 327.09 155.728 327.644 159.531C327.052 166.602 327.883 174.455 328.041 181.277C330.969 182.698 334.133 184.048 337.813 184.085C338.486 184.474 339.118 184.937 339.435 185.612C339.554 187.069 339.435 188.987 337.733 189.805C334.172 190.587 330.257 191.226 326.617 190.231C325.39 191.333 326.894 192.826 326.42 194.068C327.289 196.735 330.257 198.51 332.195 200.712C333.62 201.852 335.479 203.2 334.766 204.976C335.044 205.474 335.4 205.938 335.242 206.612C333.857 208.781 330.851 208.424 328.515 208.566C324.203 207.573 319.614 206.966 316.053 204.48C314.352 201.778 311.86 199.682 309.407 197.373C308.735 195.702 309.724 193.393 308.181 192.008C309.328 189.554 306.242 187.991 306.48 185.541L307.151 178.719C305.491 174.098 306.717 168.483 306.48 163.864C307.151 160.844 305.57 157.788 306.4 154.91C305.411 151.215 307.31 147.697 307.35 143.93C305.57 137.143 305.135 129.824 302.958 123.215C302.484 121.439 302.365 119.555 302.285 117.673C301.178 115.15 299.476 112.839 299.437 109.891C298.171 105.485 298.725 100.26 300.98 96.4229C300.782 94.6469 301.693 93.1894 301.653 91.5554C300.465 90.4179 298.606 90.1337 297.933 88.6765C296.944 84.271 294.887 80.2552 292.038 76.5594C289.784 72.5443 289.784 66.9297 291.682 62.737C295.323 57.4785 297.498 51.651 299.753 45.8586C301.653 42.0561 304.857 37.6151 310 37.1525C313.244 36.1582 317.359 34.7371 318.149 31.2549C318.98 30.8991 318.11 30.0819 318.545 29.4777C319.298 28.3408 317.991 27.3104 317.873 26.1374C317.438 23.8636 318.862 22.3361 318.624 20.0256C318.902 17.0767 322.621 15.6195 324.717 13.7719C324.678 12.7057 326.024 13.1319 326.616 12.6699C327.289 12.5995 328.279 12.5995 328.793 12.0663C329.385 12.6001 329.86 11.7824 330.413 12.4221Z" fill="#333333" fill-opacity="0.46"/>
<path d="M272.372 215.829C275.755 215.593 279.667 215.514 281.865 212.79C285.424 210.068 284.853 205.843 286.831 202.567L286.612 200.949C288.589 199.567 286.831 197.119 288.632 195.659C288.897 194.08 287.182 193.132 286.391 192.066C287.095 190.488 287.754 188.593 287.051 186.856C287.402 182.08 288.897 177.619 288.632 172.723C288.281 169.172 288.544 164.789 287.578 161.355C289.951 159.264 286.479 157.014 288.105 154.725C288.105 151.448 284.106 148.922 286.084 145.645C287.271 142.882 287.051 139.606 288.721 137C288.853 134.672 290.083 132.698 290.303 130.368C292.369 128.908 290.259 126.619 291.666 124.882C291.93 121.488 292.017 118.369 292.413 115.014C294.128 113.948 292.809 112.685 292.633 111.342C291.446 107.238 291.402 102.5 291.446 98.1589L290.918 96.6583C292.369 93.0272 295.71 90.0664 295.885 85.9608C295.929 83.3952 298.566 81.777 297.907 78.9354L297.687 76.0137C300.016 73.6053 299.533 70.6849 298.741 67.7638C297.291 63.9746 296.325 59.8691 296.325 55.6452C294.611 52.0929 293.819 47.8688 289.336 45.6975C287.799 45.1058 286.172 44.7108 284.941 43.4083C285.469 42.3819 285.908 41.1579 285.556 39.8952C282.875 35.948 277.997 34.6057 274.042 32.3162C272.986 32.1187 272.063 31.2109 270.789 31.6847C270.613 30.8563 270.746 30.0664 270.701 29.1185C269.954 28.3684 270.262 26.3164 268.459 26.9479C268.372 25.5659 267.712 24.2634 267.845 22.9609C267.449 22.5663 267.273 21.9348 267.537 21.4212C265.471 20.8288 267.186 19.0134 265.603 18.1052C265.823 18.0267 265.954 17.7898 265.736 17.6318L265.076 17.2766L265.296 17.0002L264.549 16.6845C264.46 16.4873 264.724 16.3687 264.768 16.211C264.066 15.658 263.186 16.6056 262.878 15.7369C262.351 15.5 261.823 15.816 261.295 15.8555L261.823 14.6321L259.494 15.658L259.274 15.1842C258.747 15.1053 258.219 16.1315 257.824 15.3814C257.34 15.2631 257.164 15.7369 256.857 15.9343C256.418 15.8157 256.725 15.3022 256.33 15.1053C255.891 15.4605 255.979 16.4473 255.187 16.5261C254.264 15.8157 253.605 16.9999 252.77 16.6842C252.023 17.3551 250.748 16.1312 250.441 17.5523C250.264 17.3551 249.957 17.4734 249.693 17.4734C249.518 18.1049 248.727 17.7895 248.331 18.1049C246.925 18.9737 247.276 20.6314 246.002 21.6184C246.704 22.6048 245.518 24.0654 246.441 25.0527L247.276 26.0789L248.024 32.2373C247.364 33.1055 249.561 35.237 246.969 35.0004C246.222 34.9609 245.563 34.2105 244.727 34.8818C244.639 35.1584 244.331 35.3556 243.98 35.2767C243.277 35.3947 243.277 34.2105 242.53 34.6057C242.002 36.5397 239.629 35.1981 238.531 36.1057C237.344 35.8294 236.2 35.7896 235.234 36.5003C234.091 36.1842 233.036 36.4612 232.288 35.4739C230.047 35.4739 230.971 33.1849 230.267 32.0399C230.267 30.8165 231.629 30.1058 231.981 29.0008C232.508 27.4217 232.729 25.6451 232.508 23.9874C232.201 23.6325 232.157 23.1193 231.542 23.0398L231.454 19.7241C230.135 17.5923 229.961 14.5132 226.708 13.7637C226.18 14.0006 225.741 13.4871 225.213 13.3691C225.257 13.0142 224.817 12.9744 224.598 12.8164C223.499 13.7243 223.015 11.553 221.96 12.4215C220.115 11.8688 218.489 13.053 216.555 12.895C215.632 12.8164 215.368 13.9606 214.445 13.8423C214.182 14.711 213.127 14.711 212.556 15.2634C210.49 17.3952 209.523 20.0393 210.138 22.6846L210.226 25.3293C210.007 25.211 209.831 25.4476 209.831 25.606C210.226 28.1321 210.93 30.5399 212.468 32.6323L213.083 35.3559C210.973 36.8555 208.6 35.553 206.227 36.2243C202.842 35.1193 200.162 32.3951 196.338 32.2376C195.195 31.8033 194.668 30.7768 193.569 30.2639C191.152 28.9216 188.427 27.382 185.571 27.8952C183.856 27.8952 182.45 27.1845 180.823 27.0268C179.725 26.4344 179.198 24.1454 177.441 25.4085C176.648 24.7764 176.518 23.5925 175.331 23.3158C174.364 23.0395 174.188 24.7372 173.353 23.7896C173.88 22.4871 174.276 21.1055 175.023 19.8421C177.748 19.6055 176.693 16.6453 177.572 15.1056C177.616 14.0795 178.012 12.7369 176.825 12.0663L177.221 9.02662C176.781 6.81596 175.331 4.9608 174.056 3.06621C173.265 2.90848 173.265 1.52681 172.297 1.92144C171.111 0.737249 169.616 1.13218 168.386 0.105415C166.848 0.658383 165.397 -0.723279 164.167 0.579519C162.804 -0.802144 161.486 1.21075 159.816 0.776682C158.102 1.84288 155.949 2.71131 155.597 4.76363C154.322 6.93486 155.421 9.26352 155.069 11.7902C154.586 11.7902 154.014 12.0666 153.927 12.5398C153.268 14.8687 154.629 16.7242 154.761 18.8954C155.509 19.2506 155.729 20.0396 156.784 19.7244C157.311 20.9483 158.014 22.0928 158.761 23.2376C157.354 23.3953 157.267 25.2902 155.729 25.1322C155.201 25.8432 154.674 26.3167 153.707 26.3561C151.509 29.4349 147.29 28.8037 144.653 31.2906C143.949 31.5275 142.895 32.1193 142.63 31.0143C142.281 29.1191 142.763 26.9091 140.742 25.6066C139.818 25.0536 139.291 24.9356 138.632 24.1066C139.071 23.6328 139.51 24.1849 139.994 24.1066C140.786 24.3035 141.797 23.2379 142.104 24.264C142.06 24.4615 142.192 24.541 142.324 24.659C142.675 24.5012 142.499 23.9085 142.412 23.6328C141.576 22.5669 139.467 24.1849 138.939 22.5669C138.852 21.8168 138.413 21.1064 137.666 20.6717C135.644 20.7903 134.28 19.3695 132.303 19.3695C131.468 18.3033 130.238 17.7904 128.7 18.0276C127.644 18.185 126.677 18.3431 126.194 19.3695C123.646 19.5269 121.843 21.4616 119.866 22.5669C117.889 24.777 121.141 27.6589 118.679 29.5929C118.414 31.4086 118.503 33.5802 120.26 34.8824C120.393 35.6325 119.426 35.9486 119.337 36.5798C118.854 37.922 119.602 39.027 120.701 39.8955C121.052 40.1718 121.447 40.4478 121.975 40.3696C121.756 39.422 120.041 38.751 120.393 37.4482C120.393 36.5006 121.535 36.1849 121.843 35.3562C123.206 36.4218 122.766 38.3167 124.391 39.3428C124.831 40.4087 126.238 41.7115 124.831 42.7374C122.678 44.7903 119.601 44.8297 117.097 46.172C115.822 46.2903 116.129 44.7111 114.899 44.6326C113.537 44.5534 112.526 45.3824 112.043 46.4483C111.031 47.0404 109.23 46.3694 108.659 47.5931C109.538 49.6062 106.373 48.5795 106.682 50.3163C106.725 51.0659 107.12 51.8163 106.021 52.0532C105.451 52.5661 105.362 53.4746 105.713 54.1064C105.977 54.5799 105.143 54.8563 105.187 55.3695C104.308 56.6326 106.768 56.9089 105.627 58.2114C103.297 65.5935 103.516 74.0406 102.681 81.8959L101.803 84.6195C102.417 91.4878 100.968 98.4355 102.242 104.712C101.934 106.33 100.088 107.396 99.6927 108.975C98.5941 110.791 98.1112 112.804 97.583 114.856L98.5509 115.487C98.9018 115.487 99.2973 115.567 99.5168 115.212C100.132 116.989 102.462 116.04 103.296 117.58C103.78 117.778 104.395 118.054 104.879 117.7C105.143 118.567 106.373 118.213 106.549 119.12H106.9C106.592 118.567 107.296 118.133 107.604 117.7C108.57 119.752 107.56 121.922 108.044 124.013C108.35 126.265 108.219 128.949 108.57 131.318C108.482 132.935 109.493 134.16 109.713 135.699C108.746 139.488 110.152 143.159 110.152 146.948C109.319 149.396 108.966 152.396 110.065 154.803C109.319 157.606 110.373 161.12 108.659 163.527C109.405 166.844 106.856 169.37 107.604 172.528C108.44 173.12 108.263 174.185 108.35 174.896C109.141 175.134 110.152 174.777 110.68 175.567C110.767 177.461 113.844 177.264 113.405 179.356C113.624 179.396 113.8 179.553 113.844 179.752C113.757 181.962 113.932 184.291 114.46 186.383C117.36 188.475 121.228 188.712 124.831 187.805C125.755 187.212 127.161 186.857 127.469 185.712C129.886 186.661 133.621 186.502 135.688 184.843C137.885 182.437 136.128 179.121 135.16 176.713C135.292 175.845 136.259 175.568 136.435 174.699C136.479 171.344 140.083 169.291 139.599 165.698C139.599 162.422 138.676 159.422 138.72 156.224C139.203 152.002 137.269 148.409 139.159 144.58C140.258 142.409 140.698 139.291 139.599 137.001C141.751 131.83 142.28 126.067 143.906 120.699C144.082 117.146 147.861 114.897 147.158 110.949C146.85 108.107 147.334 105.226 147.158 102.423C147.421 103.527 147.554 104.751 147.51 105.857C148.125 107.713 148.037 109.529 147.818 111.542C149.224 114.62 147.642 118.291 148.74 121.37C148.827 124.251 150.586 126.502 151.069 129.226C150.014 131.515 152.432 134.278 149.795 136.054C149.356 137.002 150.761 137.83 149.795 138.7C149.048 140.831 145.268 142.568 147.597 145.173C149.267 148.252 147.904 151.765 148.652 155.121C148.037 159.265 147.904 164.632 149.488 168.659C149.004 170.673 147.774 172.765 148.564 174.896C147.904 177.819 142.412 178.252 143.818 181.924C144.169 184.252 146.85 185.398 149.092 185.911C152.343 186.186 154.453 184.252 156.651 182.398C157.266 180.74 157.881 178.964 158.98 177.541C159.859 177.345 160.739 177.227 161.529 176.792C162.628 174.7 163.683 172.41 165.44 170.437C165.221 168.345 165.309 166.213 165.749 164.121C167.506 159.818 165.793 154.213 166.803 149.594C166.583 146.752 167.682 143.436 166.672 140.516C166.188 137.791 168.517 135.898 167.551 133.213C169.572 125.239 169.923 116.634 171.33 108.384L171.856 107.555L172.296 108.225C173.966 114.541 174.494 121.292 175.856 127.726C175.945 129.344 176.032 131.002 176.604 132.463C176.12 135.502 177.35 138.068 177.966 140.792C177.439 145.055 177.175 149.476 177.747 153.778C177.702 157.331 176.867 160.607 178.097 163.922C177.482 167.396 178.097 171.384 179.152 174.699C179.196 176.042 179.636 177.582 181.13 178.015C181.877 178.569 181.042 179.278 181.438 179.911C182.404 181.253 185.085 180.699 185.261 182.595C185.35 183.818 186.053 185.042 187.238 185.713C188.91 185.752 189.788 187.489 191.458 187.489C191.722 188.752 191.985 190.212 193.568 190.726C196.468 191.516 199.896 192.068 202.841 191.003C205.565 189.936 205.698 186.503 208.994 186.463C210.708 186.621 211.851 185.594 213.081 184.647C214.004 183.581 211.939 182.792 213.081 181.726C212.203 179.752 214.181 178.095 214.356 176.121C214.4 174.699 212.29 173.16 214.267 171.975C214.224 169.173 212.29 166.765 213.3 163.922C213.96 159.265 213.828 154.567 213.828 149.79C215.894 148.805 213.96 147.028 214.268 145.725C215.015 143.317 216.729 141.147 216.026 138.344C217.036 136.409 217.081 134.12 217.608 131.989C218.399 128.278 219.762 124.805 221.3 121.37C222.311 123.027 222.355 125.041 222.883 126.857C223.674 130.37 223.894 133.765 224.069 137.476C224.421 140.003 226.179 142.45 224.904 145.054C225.08 147.463 227.805 149.752 225.74 152.16C226.575 153.502 226.004 155.238 225.431 156.541C224.816 161.002 227.102 166.094 225.431 170.752L225.344 174.345C223.981 175.883 221.696 177.306 222.883 179.554L223.542 181.726C220.466 183.857 219.016 187.095 217.082 189.858C216.994 190.964 216.73 192.305 217.74 193.094C221.3 194.476 225.475 195.582 229.563 194.713C233.386 194.436 234.045 190.37 237.562 189.385C238.969 188.239 237.914 186.542 238.397 185.042C239.188 184.016 241.429 182.989 240.111 181.45C240.506 180.858 241.869 181.135 241.782 180.108C241.956 179.042 242.879 178.252 243.275 177.265C241.342 174.226 241.473 170.199 242.748 166.962C242.66 165.857 243.188 164.95 243.583 164.003C243.891 158.95 243.45 152.989 243.143 147.896C243.32 146.989 243.803 145.844 243.143 144.977C240.727 143.278 241.956 140.041 242.529 137.869C241.254 137.002 241.869 135.541 242 134.357C242.704 130.489 243.1 126.462 244.11 122.712C244.857 118.567 245.605 114.422 245.912 110.12C245.649 107.475 246.088 104.318 245.033 101.87L245.385 99.1065C244.199 95.8302 245.737 92.5937 245.692 89.2777C245.912 88.527 246.088 87.6591 246.747 87.1853L246.967 87.462C246.483 91.6855 248.681 95.3961 248.198 99.5014C248.681 100.646 247.802 102.027 248.549 103.172C247.318 104.12 249.208 105.62 247.362 106.132C248.022 107.909 248.065 110.041 246.967 111.619C246.527 112.527 247.67 112.882 248.022 113.514C245.736 117.422 248.241 121.804 247.889 125.909C247.538 129.303 250.306 131.712 249.164 135.105C248.592 138.186 249.296 141.067 250.13 143.831C250.262 148.685 250.219 153.816 253.382 157.646C252.153 159.068 253.866 160.29 254.218 161.553C255.185 165.186 254.921 169.291 255.713 173.002L255.581 182.12C255.185 182.792 255.537 183.817 255.274 184.567C254.525 186.383 251.537 187.527 252.548 189.857C250.878 193.291 247.054 195.816 243.363 197.08C242.352 198.265 242.352 199.843 242.835 201.225C244.022 202.804 245.911 203.279 247.802 203.514C253.427 203.198 258.13 200.83 262.877 198.58C263.711 197.87 264.678 197.04 264.898 196.015C265.645 196.172 266.128 197.239 267.096 196.686C268.457 195.068 267.623 192.345 270.26 191.199C270.963 189.304 268.854 187.094 271.007 185.515C271.974 186.818 271.666 188.593 272.458 189.975C272.193 192.187 270.787 194.002 269.205 195.739C268.897 197.554 269.16 199.646 270.568 200.949C271.534 201.146 271.271 202.331 272.061 202.568C271.447 206.002 268.414 208.765 268.37 212.516C268.503 214.41 270.657 215.317 272.372 215.829ZM130.282 18.8948L129.578 18.5794L130.722 18.8948H130.282ZM140.302 29.1182L140.126 27.5006C140.742 27.6974 140.698 28.5658 140.522 29.1182H140.302ZM120.613 33.2632C119.778 32.5528 119.909 31.092 120.086 30.421C120.525 31.408 121.36 32.2765 120.613 33.2632ZM141.269 34.0528C141.006 33.2629 141.269 32.3945 141.489 31.7632C141.577 31.9213 141.797 31.9213 141.884 32.0396C142.631 32.7105 141.489 33.3818 141.269 34.0528ZM204.953 88.8825C205.744 91.1723 204.294 93.1057 202.756 94.7637C202.623 97.4479 201.393 99.7368 200.954 102.342C199.59 105.619 199.283 109.566 199.195 113.436C198.931 117.975 197.438 121.962 198.008 126.579C198.931 131.121 198.008 135.974 198.667 140.593C199.59 143.831 195.108 145.29 196.865 148.567C198.712 151.844 198.448 155.948 199.503 159.541C200.382 163.448 197.129 166.291 197.393 170.159C197.218 171.106 198.272 171.817 197.612 172.724C196.689 174.66 197.568 177.027 196.865 178.883L196.206 178.804C195.196 178.211 194.448 177.383 194.624 176.238C194.405 176.002 194.405 175.725 194.536 175.487C195.987 174.66 195.723 173.081 195.591 171.778C196.426 171.224 196.953 170.396 197.173 169.489C196.909 166.921 196.03 164.553 195.591 162.026C196.558 159.501 194.536 157.29 196.119 155C196.689 153.5 195.854 151.805 196.426 150.264C195.854 148.132 195.854 145.803 195.283 143.632L194.536 132.935L195.283 126.579C197.7 121.684 196.338 117.145 196.865 111.896C196.295 108.422 196.689 105.264 196.338 101.672C196.778 96.698 194.668 92.553 195.283 87.6582C195.635 87.6977 196.119 87.6582 196.206 87.2633C195.899 86.0794 196.469 84.4214 196.03 83.3164C193.877 81.9347 195.371 79.2111 193.921 77.632C193.042 76.685 194.272 75.6588 193.262 74.7901C193.173 71.3953 191.548 68.4742 191.987 65.0005C192.251 63.1848 194.492 62.1186 194.009 59.9874C192.514 57.4609 194.975 55.29 194.536 52.8027L195.152 52.6844C198.008 56.7505 202.887 58.2105 206.448 61.329L206.666 61.8031C207.721 71.1978 206.535 80.0001 204.953 88.8825Z" fill="#333333" fill-opacity="0.46"/>
</g>
</svg>
